<?xml version="1.0" encoding="utf-8"?>
<!-- Generator: Adobe Illustrator 18.1.1, SVG Export Plug-In . SVG Version: 6.00 Build 0)  -->
<svg version="1.1" id="Layer_1" xmlns="http://www.w3.org/2000/svg" xmlns:xlink="http://www.w3.org/1999/xlink" x="0px" y="0px"
	 viewBox="0 0 1000 1000" enable-background="new 0 0 1000 1000" xml:space="preserve">
<g>
	<path fill="#323436" stroke="#FFB333" stroke-width="40" stroke-miterlimit="10" d="M749.1,126.4l201.8,345.5
		c10.9,18.2,10.9,38.2,0,56.4L749.1,873.6c-9.1,16.4-29.1,27.3-47.3,27.3H298.2c-20,0-38.2-10.9-47.3-27.3L49.1,528.2
		c-10.9-18.2-10.9-38.2,0-56.4l201.8-345.5C260,110,280,99.1,298.2,99.1h403.6C720,99.1,738.2,110,749.1,126.4z"/>
	<g display="none">
		<g display="inline">
			<g>
				<g>
					<path fill="#FFB333" d="M441.8,410c-14.5-10.9-27.3-23.6-38.2-38.2c-10.9,14.5-30.9,0-12.7-16.4c5.5-3.6,7.3-5.5,12.7-5.5
						c3.6,0,7.3,3.6,9.1,7.3c7.3,18.2,16.4,32.7,30.9,45.5L441.8,410z"/>
				</g>
				<g>
					<path fill="#FFB333" d="M554.5,410c14.5-10.9,27.3-23.6,38.2-38.2c10.9,14.5,30.9,0,12.7-16.4c-5.5-3.6-7.3-5.5-12.7-5.5
						c-3.6,0-7.3,3.6-9.1,7.3c-7.3,18.2-16.4,32.7-30.9,45.5L554.5,410z"/>
				</g>
			</g>
			<g>
				<g>
					<path fill="#FFB333" d="M450.9,460.9c-76.4,40-85.5,61.8-65.5,140c-18.2-1.8-21.8,20,1.8,20c5.5,0,9.1-1.8,12.7-5.5
						c1.8-3.6,3.6-7.3,1.8-12.7c-23.6-67.3-16.4-103.6,50.9-138.2L450.9,460.9z"/>
				</g>
				<g>
					<path fill="#FFB333" d="M545.5,460.9c76.4,40,85.5,61.8,65.5,140c18.2-1.8,21.8,20-1.8,20c-5.5,0-9.1-1.8-12.7-5.5
						c-1.8-3.6-3.6-7.3-1.8-12.7c23.6-67.3,16.4-103.6-50.9-138.2L545.5,460.9z"/>
				</g>
			</g>
			<g>
				<g>
					<path fill="#FFB333" d="M652.7,504.5c9.1,18.2,12.7,34.5,16.4,52.7c16.4-5.5,27.3,16.4,3.6,20c-5.5,0-9.1,0-12.7-1.8
						c-3.6-1.8-5.5-7.3-5.5-12.7c1.8-20,1.8-36.4-5.5-54.5L652.7,504.5z"/>
				</g>
				<g>
					<path fill="#FFB333" d="M343.6,504.5c-9.1,18.2-12.7,34.5-16.4,52.7c-16.4-5.5-27.3,16.4-3.6,20c5.5,0,9.1,0,12.7-1.8
						c3.6-1.8,5.5-7.3,5.5-12.7c-1.8-20-1.8-36.4,5.5-54.5L343.6,504.5z"/>
				</g>
			</g>
		</g>
		<g display="inline">
			<path fill="#FFB333" d="M523.6,326.4c7.3-9.1,20-29.1,25.5-65.5"/>
			<path fill="#FFB333" d="M472.7,326.4c-7.3-9.1-20-29.1-25.5-65.5"/>
		</g>
		<g display="inline">
			<path fill="#FFB333" d="M498.2,384.5c-25.5,1.8-40,7.3-54.5,14.5c-12.7,41.8,5.5,81.8,54.5,96.4c50.9-14.5,67.3-54.5,54.5-96.4
				C538.2,391.8,523.6,388.2,498.2,384.5z"/>
			<path fill="#FFB333" d="M498.2,500.9c-27.3,0-49.1,7.3-65.5,14.5c-16.4,76.4,9.1,194.5,65.5,216.4c56.4-23.6,81.8-140,65.5-216.4
				C547.3,506.4,525.5,500.9,498.2,500.9z"/>
			<path fill="#FFB333" d="M498.2,357.3c0,14.5-14.5,25.5-32.7,25.5c-38.2-1.8-20-67.3,32.7-74.5c52.7,7.3,70.9,72.7,32.7,74.5
				C512.7,384.5,498.2,371.8,498.2,357.3z"/>
			<path fill="#323436" d="M543.6,602.7h-90.9c-5.5,0-10.9-5.5-10.9-10.9l0,0c0-5.5,5.5-10.9,10.9-10.9h92.7
				c5.5,0,10.9,5.5,10.9,10.9l0,0C554.5,597.3,550.9,602.7,543.6,602.7z"/>
			<path fill="#323436" d="M541.8,560.9h-87.3c-5.5,0-10.9-5.5-10.9-10.9l0,0c0-5.5,5.5-10.9,10.9-10.9h87.3
				c5.5,0,10.9,5.5,10.9,10.9l0,0C552.7,557.3,547.3,560.9,541.8,560.9z"/>
			<path fill="#323436" d="M534.5,642.7h-72.7c-5.5,0-10.9-5.5-10.9-10.9l0,0c0-5.5,5.5-10.9,10.9-10.9h72.7
				c5.5,0,10.9,5.5,10.9,10.9l0,0C545.5,639.1,541.8,642.7,534.5,642.7z"/>
			<path fill="#323436" d="M514.5,684.5h-32.7c-5.5,0-10.9-5.5-10.9-10.9l0,0c0-5.5,5.5-10.9,10.9-10.9h32.7
				c5.5,0,10.9,5.5,10.9,10.9l0,0C525.5,679.1,520,684.5,514.5,684.5z"/>
		</g>
		<g display="inline">
			<path fill="#FFB333" d="M736.4,391.8c-83.6-14.5-154.5,7.3-212.7,49.1c63.6,12.7,105.5,41.8,127.3,74.5
				c30.9,45.5,121.8,56.4,101.8,0c12.7,14.5,65.5,32.7,103.6,14.5C923.6,497.3,870.9,415.5,736.4,391.8z"/>
			<path fill="#FFB333" d="M260,391.8c83.6-14.5,154.5,7.3,212.7,49.1c-63.6,12.7-105.5,41.8-127.3,74.5
				c-30.9,45.5-121.8,56.4-101.8,0C230.9,530,178.2,548.2,140,530C72.7,497.3,125.5,415.5,260,391.8z"/>
		</g>
	</g>
</g>
<line fill="none" stroke="#FFB333" stroke-width="60" stroke-miterlimit="10" x1="298.2" y1="494" x2="701.8" y2="494"/>
<line fill="none" stroke="#FFB333" stroke-width="60" stroke-miterlimit="10" x1="298.2" y1="629" x2="701.8" y2="629"/>
<line fill="none" stroke="#FFB333" stroke-width="60" stroke-miterlimit="10" x1="298.2" y1="346.4" x2="701.8" y2="346.4"/>
</svg>
